<?xml version="1.0" standalone="no"?>
<!DOCTYPE svg PUBLIC "-//W3C//DTD SVG 20010904//EN"
 "http://www.w3.org/TR/2001/REC-SVG-20010904/DTD/svg10.dtd">
<svg version="1.0" xmlns="http://www.w3.org/2000/svg"
 width="200.000000pt" height="150.000000pt" viewBox="0 0 200.000000 150.000000"
 preserveAspectRatio="xMidYMid meet">

<g transform="translate(0.000000,150.000000) scale(0.100000,-0.100000)"
fill="#FF0000" stroke="none">
<path d="M1216 1350 c-48 -15 -106 -61 -133 -108 -32 -54 -43 -175 -23 -247
24 -86 102 -151 203 -170 28 -5 37 -12 37 -27 0 -10 10 -36 22 -57 21 -37 21
-40 6 -77 -9 -22 -34 -87 -56 -146 -32 -87 -37 -108 -25 -112 36 -14 53 -6 69
34 l16 40 58 0 57 0 16 -40 c13 -34 20 -40 46 -40 16 0 32 4 35 8 2 4 -17 66
-44 137 l-48 130 49 6 c77 10 81 13 77 61 -2 32 -7 42 -18 39 -62 -15 -98 -13
-119 8 -29 29 -26 46 10 61 119 50 172 237 105 374 -30 60 -73 100 -133 122
-42 15 -162 17 -207 4z m184 -118 c35 -36 54 -102 47 -164 -13 -105 -62 -155
-144 -145 -78 8 -116 64 -116 167 1 119 40 170 130 170 47 0 59 -4 83 -28z m8
-635 c18 -49 15 -57 -18 -57 -16 0 -30 3 -30 6 0 16 24 84 30 84 3 0 11 -15
18 -33z"/>
<path d="M40 1090 l0 -260 70 0 70 0 0 115 0 115 110 0 110 0 0 50 0 50 -110
0 -110 0 0 50 0 50 120 0 120 0 0 45 0 45 -190 0 -190 0 0 -260z"/>
<path d="M645 1338 c-12 -33 -174 -475 -180 -490 -6 -16 0 -18 59 -18 l66 0
15 38 c28 69 24 67 125 67 l93 0 20 -52 20 -53 68 0 68 0 -23 63 c-13 34 -56
151 -96 260 l-73 197 -79 0 c-54 0 -80 -4 -83 -12z m115 -213 c13 -38 25 -76
28 -82 3 -10 -12 -13 -57 -13 -42 0 -61 4 -61 12 0 28 53 169 60 161 4 -4 18
-39 30 -78z"/>
<path d="M1900 729 c0 -11 5 -17 10 -14 6 3 10 13 10 21 0 8 -4 14 -10 14 -5
0 -10 -9 -10 -21z"/>
<path d="M40 575 l0 -165 25 -6 c44 -11 55 1 55 56 0 44 3 50 20 50 13 0 28
-12 38 -31 33 -60 53 -79 82 -79 16 0 31 4 35 9 3 5 -8 33 -25 61 l-31 52 31
34 c22 25 30 45 30 72 0 80 -51 112 -175 112 l-85 0 0 -165z m155 93 c17 -8
25 -19 25 -38 0 -36 -17 -50 -62 -50 l-38 0 0 50 c0 46 2 50 25 50 13 0 36 -5
50 -12z"/>
<path d="M382 573 l3 -168 61 -3 c57 -3 64 -1 83 24 12 15 21 30 21 35 0 4
-21 9 -47 11 -46 3 -48 4 -51 35 l-3 32 68 3 68 3 0 30 0 30 -68 3 -68 3 3 32
3 32 78 3 78 3 -3 27 -3 27 -113 3 -112 3 2 -168z"/>
<path d="M739 678 c-17 -35 -56 -109 -85 -165 -30 -55 -54 -104 -54 -107 0
-12 78 -6 87 7 14 17 146 263 171 320 2 4 -17 7 -42 7 l-46 0 -31 -62z"/>
<path d="M1059 690 c-19 -27 -37 -50 -41 -50 -4 0 -19 19 -35 42 -15 23 -32
42 -38 41 -5 0 -27 -29 -47 -64 -37 -63 -37 -66 -35 -159 l2 -95 35 0 35 0 5
100 5 100 35 -48 35 -49 42 49 42 48 3 -100 3 -100 35 0 35 0 3 168 2 167 -43
0 c-41 0 -46 -3 -78 -50z"/>
<path d="M1590 735 c0 -3 15 -29 33 -58 65 -104 64 -94 13 -180 -25 -43 -46
-82 -46 -88 0 -6 16 -9 38 -7 33 3 40 8 65 56 16 28 31 52 35 52 4 0 16 -19
27 -42 26 -55 41 -68 75 -68 50 0 50 -1 -56 171 -3 5 15 36 93 162 2 4 -15 7
-39 7 -41 0 -44 -2 -71 -52 l-29 -51 -26 49 c-25 46 -30 49 -69 52 -24 2 -43
0 -43 -3z"/>
<path d="M630 215 c0 -69 3 -85 15 -85 10 0 15 10 15 30 0 19 5 30 14 30 8 0
26 -13 39 -30 14 -17 34 -30 43 -30 14 0 11 7 -14 33 -29 30 -31 35 -17 47 18
15 20 61 3 78 -7 7 -31 12 -55 12 l-43 0 0 -85z m87 49 c8 -22 -9 -48 -36 -52
-18 -3 -21 1 -21 32 0 32 3 36 25 36 15 0 28 -7 32 -16z"/>
<path d="M790 215 l0 -85 56 0 c34 0 53 4 49 10 -3 6 -22 10 -41 10 -32 0 -34
2 -34 35 0 34 1 35 40 35 22 0 40 5 40 10 0 6 -18 10 -40 10 -33 0 -40 3 -40
20 0 16 7 20 34 20 19 0 38 5 41 10 4 6 -15 10 -49 10 l-56 0 0 -85z"/>
<path d="M955 275 c-51 -50 -16 -145 52 -145 60 0 73 9 73 51 0 38 -1 39 -35
39 -19 0 -35 -4 -35 -10 0 -5 9 -10 20 -10 15 0 20 -7 20 -25 0 -22 -4 -25
-34 -25 -41 0 -60 21 -60 65 0 18 6 40 13 49 15 18 63 21 92 6 15 -8 19 -7 19
3 0 34 -92 36 -125 2z"/>
<path d="M1118 288 c7 -7 12 -39 12 -73 0 -34 -5 -66 -12 -73 -9 -9 -3 -12 27
-12 30 0 36 3 27 12 -16 16 -16 130 0 146 9 9 3 12 -27 12 -30 0 -36 -3 -27
-12z"/>
<path d="M1237 288 c-27 -22 -39 -66 -26 -105 29 -88 149 -63 149 31 0 66 -74
111 -123 74z m84 -24 c7 -9 13 -31 13 -49 0 -42 -19 -65 -55 -65 -32 0 -49 23
-49 65 0 42 17 65 49 65 16 0 35 -7 42 -16z"/>
<path d="M1390 216 c0 -69 3 -86 15 -86 11 0 15 16 17 68 l3 67 34 -67 c47
-94 61 -90 61 17 0 98 -18 116 -22 23 l-3 -63 -31 60 c-21 42 -37 61 -52 63
-21 3 -22 0 -22 -82z"/>
<path d="M1601 278 c-60 -163 -56 -148 -37 -148 8 0 17 11 20 25 5 21 12 25
41 25 29 0 36 -4 41 -25 3 -14 12 -25 20 -25 18 0 19 -7 -15 86 -30 83 -54
104 -70 62z m44 -79 c-8 -11 -32 -12 -39 0 -3 5 0 24 6 42 l12 34 13 -33 c7
-18 11 -37 8 -43z"/>
<path d="M1720 290 c0 -5 5 -10 10 -10 6 0 10 -28 10 -65 0 -37 -4 -65 -10
-65 -5 0 -10 -4 -10 -10 0 -5 17 -10 38 -10 33 1 35 2 20 14 -14 10 -18 28
-18 71 0 43 4 61 18 71 15 12 13 13 -20 14 -21 0 -38 -4 -38 -10z"/>
<path d="M1825 276 c-8 -13 -13 -30 -10 -39 6 -15 43 -33 80 -39 12 -2 20 -11
20 -23 0 -15 -8 -21 -32 -23 -18 -2 -41 2 -53 8 -16 8 -20 8 -20 -4 0 -17 21
-26 61 -26 43 0 69 17 69 44 0 29 -20 46 -63 55 -23 5 -32 12 -32 26 0 17 6
20 48 18 40 -1 46 1 36 13 -6 8 -29 14 -50 14 -29 0 -42 -6 -54 -24z"/>
</g>
</svg>
